# xmcd
#
# Track frame offsets: 
#        150
#        4208
#        19710
#        35582
#        51791
#        66454
#        83736
#        101387
#        121506
#        137803
#        151193
#        165410
#        182614
#        194268
#
# Disc length: 2782 seconds
#
# Revision: 0
# Processed by: cddbd v1.5.1PL2 Copyright (c) Steve Scherf et al.
# Submitted via: ExactAudioCopy v0.95b2
#
DISCID=a80adc0e
DTITLE=Martina McBride - Evolution
DYEAR=1997
DGENRE=Country
TTITLE0=I'm Little, But I'm Loud
TTITLE1=Happy Girl
TTITLE2=Be That Way
TTITLE3=A Broken Wing
TTITLE4=Wrong Again
TTITLE5=Keeping My Distance
TTITLE6=Still Holding On
TTITLE7=Whatever You Say
TTITLE8=I Won't Close My Eyes
TTITLE9=I Don't Want To See You Again
TTITLE10=Some Say I'm Running
TTITLE11=Here In My Heart
TTITLE12=One Day You Will
TTITLE13=Valentine
EXTD=
EXTT0=
EXTT1=
EXTT2=
EXTT3=
EXTT4=
EXTT5=
EXTT6=
EXTT7=
EXTT8=
EXTT9=
EXTT10=
EXTT11=
EXTT12=
EXTT13=
PLAYORDER=
